<?xml version="1.0" encoding="UTF-8" standalone="no"?>
<!-- Created with Inkscape (http://www.inkscape.org/) -->

<svg
   xmlns:dc="http://purl.org/dc/elements/1.1/"
   xmlns:cc="http://creativecommons.org/ns#"
   xmlns:rdf="http://www.w3.org/1999/02/22-rdf-syntax-ns#"
   xmlns:svg="http://www.w3.org/2000/svg"
   xmlns="http://www.w3.org/2000/svg"
   xmlns:sodipodi="http://sodipodi.sourceforge.net/DTD/sodipodi-0.dtd"
   xmlns:inkscape="http://www.inkscape.org/namespaces/inkscape"
   version="1.1"
   width="271"
   height="271"
   id="svg3144"
   sodipodi:docname="anna.svg"
   inkscape:version="0.92.5 (2060ec1f9f, 2020-04-08)">
  <sodipodi:namedview
     pagecolor="#ffffff"
     bordercolor="#666666"
     borderopacity="1"
     objecttolerance="10"
     gridtolerance="10"
     guidetolerance="10"
     inkscape:pageopacity="0"
     inkscape:pageshadow="2"
     inkscape:window-width="1848"
     inkscape:window-height="1016"
     id="namedview39"
     showgrid="false"
     inkscape:zoom="0.87142396"
     inkscape:cx="18.142253"
     inkscape:cy="135.41055"
     inkscape:window-x="72"
     inkscape:window-y="27"
     inkscape:window-maximized="1"
     inkscape:current-layer="svg3144" />
  <defs
     id="defs3146">
    <filter
       x="-0.073767826"
       y="-0.18830189"
       width="1.1475357"
       height="1.3766038"
       id="filter3895"
       style="color-interpolation-filters:sRGB">
      <feGaussianBlur
         id="feGaussianBlur3897"
         stdDeviation="0.53240163" />
    </filter>
    <filter
       x="-0.083193593"
       y="-0.18352062"
       width="1.1663872"
       height="1.3670412"
       id="filter3865"
       style="color-interpolation-filters:sRGB">
      <feGaussianBlur
         id="feGaussianBlur3867"
         stdDeviation="0.72220352" />
    </filter>
  </defs>
  <metadata
     id="metadata3149">
    <rdf:RDF>
      <cc:Work
         rdf:about="">
        <dc:format>image/svg+xml</dc:format>
        <dc:type
           rdf:resource="http://purl.org/dc/dcmitype/StillImage" />
        <dc:title></dc:title>
      </cc:Work>
    </rdf:RDF>
  </metadata>
  <g
     id="g903"
     transform="translate(-62,0.17889404)">
    <path
       d="m 117.27106,103.11649 3.39197,16.37334 3.59766,14.95967 5.73023,30.06704 c 1.2397,8.84209 16.69284,29.13589 16.69284,29.13589 0,0 15.50456,19.94039 25.09179,23.50086 15.76278,-1.67629 32.60553,-10.77442 52.14764,-28.50235 14.24079,-18.49933 24.01075,-65.79974 24.01075,-65.79974 L 207.5641,50.5706 Z"
       id="path3077"
       style="fill:#fff1e8;fill-opacity:1;stroke:none"
       inkscape:connector-curvature="0" />
    <path
       d="m 155.33025,195.00179 c 0,0 1.42857,56.07143 5,56.07143 3.57143,0 31.78572,9.28572 31.78572,5.71429 0,-3.57143 -5,-55.71429 -5,-55.71429 z"
       id="path3928"
       style="fill:#fff1e8;fill-opacity:1;stroke:none"
       inkscape:connector-curvature="0" />
    <path
       d="m 240.78236,114.95339 c 0,0 5.16706,41.43257 -15.12031,68.10235 -20.28736,26.66977 -44.28615,30.83951 -44.28615,30.83951 l -0.11881,41.95039 c 0,0 66.58483,-27.6763 65.5134,-44.46202 -6.48325,-13.32047 2.84739,-95.14456 2.84739,-95.14456 z"
       id="path3849"
       style="fill:#e8d3c8;fill-opacity:1;stroke:none"
       inkscape:connector-curvature="0" />
    <path
       d="m 230.40984,182.26542 c -3.67432,12.09763 -40.28483,33.94895 -49.2362,35.8364"
       id="path3877"
       style="fill:none;stroke:#c9a996;stroke-width:1px;stroke-linecap:butt;stroke-linejoin:miter;stroke-opacity:1"
       inkscape:connector-curvature="0" />
    <path
       d="m 167.80639,125.81674 c 2.15664,-1.72257 5.66686,-14.6903 44.41601,-8.84883 -29.49126,-3.39811 -44.41601,8.84883 -44.41601,8.84883 z"
       id="path3879"
       style="fill:#000000;fill-opacity:1;stroke:none"
       inkscape:connector-curvature="0" />
    <path
       d="M 212.49049,116.87932 Z"
       id="path3881"
       style="fill:none;stroke:#000000;stroke-width:1px;stroke-linecap:butt;stroke-linejoin:miter;stroke-opacity:1"
       inkscape:connector-curvature="0" />
    <path
       d="m 179.62393,141.06181 c 0,0 13.79403,2.63114 15.83269,2.55903 7.05424,-0.24952 17.03966,-8.36645 17.03966,-8.36645 0,0 -22.60975,-2.46057 -27.78176,-1.55437 -2.09365,1.67313 -5.09059,7.36179 -5.09059,7.36179 z"
       id="path3883"
       style="fill:#ffffff;stroke:none"
       inkscape:connector-curvature="0" />
    <path
       d="m 202.45355,134.58515 a 7.5,7.5 0 1 1 -14.81348,-0.53721"
       id="path3079"
       style="fill:#000000;fill-opacity:1;fill-rule:nonzero;stroke:none"
       inkscape:connector-curvature="0" />
    <path
       d="m 193.05601,138.81514 a 3.2829957,1.1995561 8.2790666 1 1 -6.41995,-0.94125"
       id="path3885"
       style="opacity:0;fill:#ffffff;fill-opacity:1;fill-rule:nonzero;stroke:none"
       inkscape:connector-curvature="0" />
    <path
       d="m 191.70821,139.56644 a 3.0935922,3.3461304 8.2790666 1 1 -6.00991,-1.40253"
       id="path3887"
       style="opacity:0;fill:#ffffff;fill-opacity:1;fill-rule:nonzero;stroke:none"
       inkscape:connector-curvature="0" />
    <path
       d="m 191.01285,136.05595 a 1.3201655,2.3288784 82.968107 1 1 -4.61534,0.62246 1.3201655,2.3288784 82.968107 1 1 4.61534,-0.62246 z"
       id="path3893"
       style="fill:#ffffff;fill-opacity:1;fill-rule:nonzero;stroke:none;stroke-width:0.08502165"
       inkscape:connector-curvature="0" />
    <path
       d="m 179.68641,141.0709 c 0.0429,-0.18516 2.32638,-5.28518 3.17603,-7.38876 -1.20391,-0.40714 -3.3506,-0.85355 -4.177,-3.07076 2.23114,0.65487 3.67199,1.5926 5.37341,1.19302 9.66236,-3.29585 18.58994,3.16546 30.42548,1.1873 0,0 -1.88127,2.40583 -2.13117,2.36947 -0.24991,-0.0364 -26.74578,-1.65882 -28.76553,-0.93193 -0.81684,1.66753 -3.90122,6.64166 -3.90122,6.64166 z"
       id="path3895"
       style="fill:#000000;fill-opacity:1;stroke:none"
       inkscape:connector-curvature="0" />
    <path
       d="m 165.89433,128.59782 c 0,0 -4.41502,8.01926 -6.33751,28.67196"
       id="path3916"
       style="fill:none;stroke:#000000;stroke-width:1px;stroke-linecap:butt;stroke-linejoin:miter;stroke-opacity:1"
       inkscape:connector-curvature="0" />
    <path
       d="m 152.74434,177.95426 c 2.90419,4.29315 6.43973,7.57614 10.48034,6.43972 4.04061,-1.13642 9.59645,-4.92449 10.35406,-9.21764 -2.52538,3.91434 -8.22754,0.18227 -10.76444,2.66743 -3.98699,3.9057 -5.65054,0.80497 -10.06996,0.11049 z"
       id="path3825"
       style="fill:#c9a996;fill-opacity:1;stroke:none;filter:url(#filter3865)"
       inkscape:connector-curvature="0" />
    <path
       d="m 174.36767,172.05656 c 0,0 -0.73474,4.19829 -3.34522,5.47722 -2.43098,0.92225 -4.03709,-1.69204 -6.71797,-0.80615 -2.41512,1.69016 -3.37813,2.64711 -5.8977,3.30128 -3.49869,-0.5091 -5.77176,-2.47299 -5.77176,-2.47299"
       id="path3922"
       style="fill:none;stroke:#000000;stroke-width:1px;stroke-linecap:round;stroke-linejoin:miter;stroke-opacity:1"
       inkscape:connector-curvature="0" />
    <path
       d="m 198.34779,79.18456 c 0,0 5.37546,21.45164 13.96176,30.54301 0,0 17.26506,14.66793 27.36659,22.74915 0,0 -3.93119,54.24601 -11.7767,80.93338 14.3497,-28.09519 20.56736,-81.81967 20.56736,-81.81967 l 21.25668,2.73218 c 0,0 15.59278,3.73806 21.9552,-34.33084 -1.36141,-40.18246 -15.0128,-32.73596 -19.05341,-32.73596 -6.19488,-32.66099 -18.28642,-51.91 -81.29664,-66.32608 -34.99524,-2.56587 -69.46417,6.13287 -83.3975,42.36125 0,0 -9.00513,44.52446 4.46206,71.02556 l 7.06733,20.8781 c -1.92804,17.2048 2.96148,81.56237 10.02487,107.2036 0,0 -8.00174,-88.86401 -4.29355,-96.98612 l -2.89629,-32.18101 c 7.87264,-16.89964 52.1542,-31.02772 52.1542,-31.02772 -1.99933,4.87118 -5.98685,7.40606 -39.17391,31.11197 32.05954,-14.46288 60.6757,-44.9457 60.6757,-44.9457 z"
       id="path3862"
       style="fill:#000000;fill-opacity:1;stroke:#000000;stroke-width:1px;stroke-linecap:butt;stroke-linejoin:miter;stroke-opacity:1"
       inkscape:connector-curvature="0" />
    <path
       d="m 246.18543,134.86751 c 0,0 10.22326,-15.60628 18.21815,-13.58974 9.37503,2.36465 5.64006,16.74242 5.64006,16.74242 l -3.47075,13.93112 c -2.58992,5.3976 -10.27577,13.61144 -14.3824,16.84184 -3.69985,1.31182 -8.61956,-4.7213 -8.61956,-4.7213 1.8309,-6.56599 2.6145,-29.20434 2.6145,-29.20434 z"
       id="path3875"
       style="fill:#fff1e8;fill-opacity:1;stroke:none"
       inkscape:connector-curvature="0" />
    <path
       d="m 244.582,192.10384 c 0,0 1.32766,12.77112 -0.21292,18.39196 -13.13198,25.25381 -62.92161,42.21718 -62.92161,42.21718 -22.72844,-7.57614 -25.75889,-33.8401 -25.75889,-33.8401 0,0 -19.53131,29.60515 -29.76361,44.44671 68.37709,21.21937 156.03268,-12.62691 156.03268,-12.62691 0,0 -27.40937,-60.86431 -37.37565,-58.58884 z"
       id="path3926"
       style="fill:#7700ff;fill-opacity:1;stroke:#220055;stroke-width:1px;stroke-linecap:butt;stroke-linejoin:miter;stroke-opacity:1"
       inkscape:connector-curvature="0" />
    <path
       d="m 184.15142,191.18669 c -2.14657,-0.63135 -17.19333,-2.39742 -17.19333,-2.39742 0,0 -1.89403,1.13643 -2.43068,1.42053 -2.28215,0.0325 -5.39799,-0.78917 -8.68099,-1.29425 0,2.90419 1.48366,6.21874 5.14546,8.99666 11.86929,2.14657 23.15954,-6.72552 23.15954,-6.72552 z"
       id="path3932"
       style="fill:#d40000;fill-opacity:1;stroke:none"
       inkscape:connector-curvature="0" />
    <path
       d="m 181.98953,191.58081 c -1.89404,0.66291 -15.67044,2.55707 -16.93313,3.47253 -1.9256,-1.29426 -5.73757,-1.43427 -6.9687,-2.57069 l 12.4375,0.12626 z"
       id="path3934"
       style="fill:#ffffff;fill-opacity:1;stroke:none"
       inkscape:connector-curvature="0" />
    <path
       d="m 253.292,136.04036 c 7.99456,1.13643 11.09681,4.41203 8.95024,13.5034 -4.9245,6.18718 -10.61729,13.48337 -14.76913,9.02946 -0.35598,-6.47003 3.63678,-6.55766 4.64286,-10.35714 1.00608,-3.79948 -4.12727,-4.59957 1.17603,-12.17572 z"
       id="path3938"
       style="fill:#c9a996;fill-opacity:1;stroke:none"
       inkscape:connector-curvature="0" />
    <path
       d="m 255.68739,132.68036 c 2.32143,-5.17857 5.90553,-8.2188 8.75001,-6.78571 2.84448,1.43309 1.60713,6.78572 -0.35715,11.42857 -3.57143,-3.75 -8.39286,-4.64286 -8.39286,-4.64286 z"
       id="path3940"
       style="fill:#c9a996;fill-opacity:1;stroke:none"
       inkscape:connector-curvature="0" />
    <path
       d="m 152.23927,140.32608 c 0,0 -5.17703,-6.81853 -12.12183,-7.82868 -6.06092,0.63135 -11.74303,3.28299 -11.74303,3.28299 0,0 4.29315,4.41942 9.72272,6.18719 9.21764,0.88388 14.14214,-1.6415 14.14214,-1.6415 z"
       id="path3773"
       style="fill:#ffffff;fill-opacity:1;stroke:none"
       inkscape:connector-curvature="0" />
    <path
       d="m 140.05793,132.34943 c -2.21377,0.2306 -4.36447,0.73925 -6.21875,1.28125 -0.10546,0.46951 -0.15625,0.9674 -0.15625,1.46875 0,3.66117 2.96384,6.625 6.625,6.625 3.60681,0 6.53867,-2.88272 6.625,-6.46875 -1.92733,-1.34654 -4.2707,-2.52744 -6.875,-2.90625 z"
       id="path3775"
       style="fill:#000000;fill-opacity:1;fill-rule:nonzero;stroke:none"
       inkscape:connector-curvature="0" />
    <path
       d="m 137.24808,136.1005 a 1.3201655,2.3288784 82.968107 1 1 -4.61534,0.62246 1.3201655,2.3288784 82.968107 1 1 4.61534,-0.62246 z"
       id="path3893-7"
       style="fill:#ffffff;fill-opacity:1;fill-rule:nonzero;stroke:none;stroke-width:0.08502165"
       inkscape:connector-curvature="0" />
    <path
       d="m 151.35538,140.19981 c -1.64149,-1.38896 -9.97525,-6.9448 -9.97525,-6.9448 0,0 -9.62169,1.74641 -12.50064,1.01015 -2.87895,-0.73626 -4.41942,-2.90418 -4.41942,-2.90418 l 4.79823,1.26269 c -2.30441,-0.97859 -3.91434,-3.283 -3.91434,-3.283 0,0 3.81964,2.14657 6.43972,2.62008 0.74554,0.13474 7.73138,-1.03774 10.48033,-0.4735 2.74895,0.56424 7.82868,3.28299 9.09137,8.71256 z"
       id="path3817"
       style="fill:#000000;fill-opacity:1;stroke:none"
       inkscape:connector-curvature="0" />
    <path
       d="m 148.09811,125.26965 c -10.26786,-9.375 -25.80357,-9.01786 -25.80357,-9.01786 0,0 15.89286,-5 25.80357,9.01786 z"
       id="path3823"
       style="fill:#000000;fill-opacity:1;stroke:none"
       inkscape:connector-curvature="0" />
    <path
       d="m 161.9374,199.10893 c 3.21428,1.07143 21.07142,-2.85714 21.07142,-2.85714 0,0 -6.85641,10.33588 -10.89285,10.17857 -4.03644,-0.15731 -10.17857,-7.32143 -10.17857,-7.32143 z"
       id="path3869"
       style="fill:#e8d3c8;fill-opacity:1;stroke:none;filter:url(#filter3895)"
       inkscape:connector-curvature="0" />
  </g>
</svg>
