<?xml version="1.0" encoding="UTF-8" standalone="no"?>
<svg
   xmlns:dc="http://purl.org/dc/elements/1.1/"
   xmlns:cc="http://creativecommons.org/ns#"
   xmlns:rdf="http://www.w3.org/1999/02/22-rdf-syntax-ns#"
   xmlns:svg="http://www.w3.org/2000/svg"
   xmlns="http://www.w3.org/2000/svg"
   xmlns:sodipodi="http://sodipodi.sourceforge.net/DTD/sodipodi-0.dtd"
   xmlns:inkscape="http://www.inkscape.org/namespaces/inkscape"
   width="16"
   height="16"
   fill="currentColor"
   class="bi bi-pc-display-horizontal"
   viewBox="0 0 16 16"
   version="1.1"
   id="svg4"
   sodipodi:docname="char03.svg"
   inkscape:version="0.92.5 (2060ec1f9f, 2020-04-08)">
  <metadata
     id="metadata10">
    <rdf:RDF>
      <cc:Work
         rdf:about="">
        <dc:format>image/svg+xml</dc:format>
        <dc:type
           rdf:resource="http://purl.org/dc/dcmitype/StillImage" />
      </cc:Work>
    </rdf:RDF>
  </metadata>
  <defs
     id="defs8" />
  <sodipodi:namedview
     pagecolor="#ffffff"
     bordercolor="#666666"
     borderopacity="1"
     objecttolerance="10"
     gridtolerance="10"
     guidetolerance="10"
     inkscape:pageopacity="0"
     inkscape:pageshadow="2"
     inkscape:window-width="1848"
     inkscape:window-height="1016"
     id="namedview6"
     showgrid="false"
     inkscape:zoom="14.75"
     inkscape:cx="0.44067797"
     inkscape:cy="8"
     inkscape:window-x="72"
     inkscape:window-y="27"
     inkscape:window-maximized="1"
     inkscape:current-layer="svg4" />
  <path
     d="M 3.4385594,2.5084746 A 0.99788139,0.99788139 0 0 0 2.440678,3.506356 V 8.1631357 A 0.99788139,0.99788139 0 0 0 3.4385594,9.1610171 H 6.4322035 V 9.8262714 H 3.1059322 A 0.66525425,0.66525425 0 0 0 2.440678,10.491526 v 1.995763 a 0.66525425,0.66525425 0 0 0 0.6652542,0.665254 h 9.3135598 a 0.66525425,0.66525425 0 0 0 0.665254,-0.665254 V 10.491526 A 0.66525425,0.66525425 0 0 0 12.419492,9.8262714 H 9.0932205 V 9.1610171 H 12.086864 A 0.99788139,0.99788139 0 0 0 13.084746,8.1631357 V 3.506356 A 0.99788139,0.99788139 0 0 0 12.086864,2.5084746 Z m 0,0.6652543 H 12.086864 A 0.33262712,0.33262712 0 0 1 12.419492,3.506356 V 8.1631357 A 0.33262712,0.33262712 0 0 1 12.086864,8.4957628 H 3.4385594 A 0.33262712,0.33262712 0 0 1 3.1059322,8.1631357 V 3.506356 A 0.33262712,0.33262712 0 0 1 3.4385594,3.1737289 Z M 10.42373,10.824152 a 0.33262712,0.33262712 0 1 1 0.665253,0 0.33262712,0.33262712 0 0 1 -0.665253,0 z m 1.330508,0 a 0.33262719,0.33262719 0 1 1 0.665254,0 0.33262719,0.33262719 0 0 1 -0.665254,0 z M 3.4385594,10.491526 h 3.3262712 a 0.33262719,0.33262719 0 0 1 0,0.665254 H 3.4385594 a 0.33262719,0.33262719 0 0 1 0,-0.665254 z m -0.3326272,1.496822 a 0.16631356,0.16631356 0 0 1 0.1663135,-0.166314 h 3.6588984 a 0.16631356,0.16631356 0 1 1 0,0.332627 H 3.2722457 A 0.16631356,0.16631356 0 0 1 3.1059322,11.988348 Z"
     id="path2"
     inkscape:connector-curvature="0"
     style="stroke-width:0.66525424" />
</svg>
