<?xml version="1.0" encoding="UTF-8" standalone="no"?>
<svg
   xmlns:dc="http://purl.org/dc/elements/1.1/"
   xmlns:cc="http://creativecommons.org/ns#"
   xmlns:rdf="http://www.w3.org/1999/02/22-rdf-syntax-ns#"
   xmlns:svg="http://www.w3.org/2000/svg"
   xmlns="http://www.w3.org/2000/svg"
   xmlns:sodipodi="http://sodipodi.sourceforge.net/DTD/sodipodi-0.dtd"
   xmlns:inkscape="http://www.inkscape.org/namespaces/inkscape"
   width="16"
   height="16"
   fill="currentColor"
   class="bi bi-person-bounding-box"
   viewBox="0 0 16 16"
   version="1.1"
   id="svg6"
   sodipodi:docname="person-bounding-box.svg"
   inkscape:version="0.92.5 (2060ec1f9f, 2020-04-08)">
  <metadata
     id="metadata12">
    <rdf:RDF>
      <cc:Work
         rdf:about="">
        <dc:format>image/svg+xml</dc:format>
        <dc:type
           rdf:resource="http://purl.org/dc/dcmitype/StillImage" />
      </cc:Work>
    </rdf:RDF>
  </metadata>
  <defs
     id="defs10" />
  <sodipodi:namedview
     pagecolor="#ffffff"
     bordercolor="#666666"
     borderopacity="1"
     objecttolerance="10"
     gridtolerance="10"
     guidetolerance="10"
     inkscape:pageopacity="0"
     inkscape:pageshadow="2"
     inkscape:window-width="1848"
     inkscape:window-height="1016"
     id="namedview8"
     showgrid="false"
     inkscape:zoom="14.75"
     inkscape:cx="0.44067797"
     inkscape:cy="8"
     inkscape:window-x="72"
     inkscape:window-y="27"
     inkscape:window-maximized="1"
     inkscape:current-layer="svg6" />
  <path
     d="M 1.5,1 A 0.5,0.5 0 0 0 1,1.5 v 3 a 0.5,0.5 0 0 1 -1,0 v -3 A 1.5,1.5 0 0 1 1.5,0 h 3 a 0.5,0.5 0 0 1 0,1 z M 11,0.5 A 0.5,0.5 0 0 1 11.5,0 h 3 A 1.5,1.5 0 0 1 16,1.5 v 3 a 0.5,0.5 0 0 1 -1,0 v -3 A 0.5,0.5 0 0 0 14.5,1 h -3 A 0.5,0.5 0 0 1 11,0.5 Z M 0.5,11 A 0.5,0.5 0 0 1 1,11.5 v 3 A 0.5,0.5 0 0 0 1.5,15 h 3 a 0.5,0.5 0 0 1 0,1 h -3 A 1.5,1.5 0 0 1 0,14.5 v -3 A 0.5,0.5 0 0 1 0.5,11 Z m 15,0 a 0.5,0.5 0 0 1 0.5,0.5 v 3 A 1.5,1.5 0 0 1 14.5,16 h -3 a 0.5,0.5 0 0 1 0,-1 h 3 A 0.5,0.5 0 0 0 15,14.5 v -3 A 0.5,0.5 0 0 1 15.5,11 Z"
     id="path2"
     style="fill:#666666"
     inkscape:connector-curvature="0" />
  <path
     d="m 3,14 c 0,0 -1,0 -1,-1 0,-1 1,-4 6,-4 5,0 6,3 6,4 0,1 -1,1 -1,1 z m 8,-9 a 3,3 0 1 1 -6,0 3,3 0 0 1 6,0 z"
     id="path4"
     style="fill:#666666"
     inkscape:connector-curvature="0" />
</svg>
